<?xml version="1.0" standalone="no"?><svg xmlns="http://www.w3.org/2000/svg" viewBox="0 0 1440 320"><path fill="#e91e63" fill-opacity="1" d="M0,0L26.7,53.3C53.3,107,107,213,160,229.3C213.3,245,267,171,320,144C373.3,117,427,139,480,160C533.3,181,587,203,640,208C693.3,213,747,203,800,181.3C853.3,160,907,128,960,138.7C1013.3,149,1067,203,1120,186.7C1173.3,171,1227,85,1280,64C1333.3,43,1387,85,1413,106.7L1440,128L1440,320L1413.3,320C1386.7,320,1333,320,1280,320C1226.7,320,1173,320,1120,320C1066.7,320,1013,320,960,320C906.7,320,853,320,800,320C746.7,320,693,320,640,320C586.7,320,533,320,480,320C426.7,320,373,320,320,320C266.7,320,213,320,160,320C106.7,320,53,320,27,320L0,320Z"></path></svg>