<?xml version="1.0" standalone="no"?><svg xmlns="http://www.w3.org/2000/svg" viewBox="0 0 1440 320"><path fill="#e91e63" fill-opacity="1" d="M0,288L26.7,250.7C53.3,213,107,139,160,128C213.3,117,267,171,320,181.3C373.3,192,427,160,480,165.3C533.3,171,587,213,640,202.7C693.3,192,747,128,800,96C853.3,64,907,64,960,90.7C1013.3,117,1067,171,1120,170.7C1173.3,171,1227,117,1280,96C1333.3,75,1387,85,1413,90.7L1440,96L1440,320L1413.3,320C1386.7,320,1333,320,1280,320C1226.7,320,1173,320,1120,320C1066.7,320,1013,320,960,320C906.7,320,853,320,800,320C746.7,320,693,320,640,320C586.7,320,533,320,480,320C426.7,320,373,320,320,320C266.7,320,213,320,160,320C106.7,320,53,320,27,320L0,320Z"></path></svg>